<?xml version="1.0" ?>
<svg xmlns="http://www.w3.org/2000/svg" viewBox="0 0 1024 1024" shape-rendering="geometricPrecision" fill="white">
  
  
  <g>
    
    
    <path d="M 1020 1022 Z"/>
    <path d="M 884 1022 Z"/>
    <path d="M 412 1022 Z"/>
    <path d="M 930 1003 Z"/>
    <path d="M 876 998 Z"/>
    <path d="M 860 998 Z"/>
    <path d="M 814 991 Z"/>
    <path d="M 860 982 Z"/>
    <path d="M 588 974 Z"/>
    <path d="M 373 974 L 372 975 Z"/>
    <path d="M 368 974 Z"/>
    <path d="M 380 973 Z"/>
    <path d="M 383 970 Z"/>
    <path d="M 350 966 Z"/>
    <path d="M 347 963 Z"/>
    <path d="M 344 963 Z"/>
    <path d="M 386 960 L 386 961 Z"/>
    <path d="M 940 958 Z"/>
    <path d="M 333 956 Z"/>
    <path d="M 724 950 Z"/>
    <path d="M 321 949 Z"/>
    <path d="M 38 939 Z"/>
    <path d="M 724 934 Z"/>
    <path d="M 636 934 Z"/>
    <path d="M 412 934 Z"/>
    <path d="M 1011 933 Z"/>
    <path d="M 297 933 Z"/>
    <path d="M 838 931 Z"/>
    ...
  </g>
</svg>
